
<svg version="1.1" id="Layer_1" xmlns="http://www.w3.org/2000/svg" xmlns:xlink="http://www.w3.org/1999/xlink" x="0px" y="0px"
	 viewBox="0 0 512 512" style="enable-background:new 0 0 512 512;" xml:space="preserve">
<style type="text/css">
	.st0{fill:#010101;}
	.st1{fill:#020202;}
</style>
<g>
	<path class="st0" d="M500.6,509.7c-3.8,3.8-12.9,1.2-17.4,1.2c-27.8,0-55.7,0-83.5,0c-55.7,0-111.3,0-167,0
		c-72.4,0-144.7,0-217.1,0.1c-4.6,0-6.7-1.1-5.9-5.8c0-0.2,0-0.3,0-0.5c2.8-89.3,38.5-161.7,110.9-215.3c3.9-2.9,6.2-2.8,9.8,0.4
		c26.8,23.2,57.8,38.1,92.8,43.9c56.4,9.4,107.1-4.3,152.4-38.9c1.1-0.8,2.2-1.7,3.2-2.6c7.6-6.2,7.7-6.3,15.4-0.6
		c30.9,22.9,56.9,52,75.1,85.9c9.2,17.1,16.4,35.1,21.7,53.7c6.5,22.5,8.4,45.5,11.2,68.8c0.3,2.8,0.7,5.8-0.6,8.4
		C501.3,508.9,501,509.3,500.6,509.7z"/>
	<path class="st1" d="M276,2c61.2,10.3,115,59.3,123.7,122.7c10.9,80.1-47,154.5-127,163.3c-77.2,8.5-146.4-43.2-159.9-119.4
		C99.4,93.1,155.3,12.9,231.6,1.5C246.5-0.7,261.4-0.4,276,2z"/>
</g>
</svg>
